<svg width="54" height="54" viewBox="0 0 54 54" fill="none" xmlns="http://www.w3.org/2000/svg">
<circle cx="27" cy="27" r="27" fill="#1171BA"/>
<path d="M31.5 37.75C31.5 41.2018 34.4637 44.1246 37.4929 42.4697C38.5291 41.9037 39.4889 41.1888 40.3388 40.3388C41.1888 39.4889 41.9037 38.5291 42.4697 37.4929C44.1246 34.4637 41.2018 31.5 37.75 31.5V31.5C34.2982 31.5 31.5 34.2982 31.5 37.75V37.75Z" fill="white"/>
<path d="M35.5 27C40.1944 27 44.1695 22.9694 41.9189 18.8497C41.6776 18.408 41.4162 17.9761 41.135 17.5553C39.267 14.7597 36.612 12.5807 33.5056 11.294C30.3993 10.0074 26.9811 9.6707 23.6835 10.3267C20.3858 10.9826 17.3567 12.6017 14.9792 14.9792C12.6017 17.3567 10.9826 20.3858 10.3267 23.6835C9.6707 26.9811 10.0074 30.3993 11.294 33.5056C12.5807 36.612 14.7597 39.267 17.5553 41.135C17.9761 41.4162 18.408 41.6776 18.8497 41.9189C22.9694 44.1695 27 40.1944 27 35.5V35.5C27 30.8056 30.8056 27 35.5 27V27Z" fill="white"/>
</svg>
