<svg width="186" height="54" viewBox="0 0 186 54" fill="none" xmlns="http://www.w3.org/2000/svg">
<circle cx="27" cy="27" r="27" fill="#1171BA"/>
<path d="M31.5 37.75C31.5 41.2018 34.4637 44.1246 37.4929 42.4697C38.5291 41.9037 39.4889 41.1888 40.3388 40.3388C41.1888 39.4889 41.9037 38.5291 42.4697 37.4929C44.1246 34.4637 41.2018 31.5 37.75 31.5V31.5C34.2982 31.5 31.5 34.2982 31.5 37.75V37.75Z" fill="white"/>
<path d="M35.5 27C40.1944 27 44.1695 22.9694 41.9189 18.8497C41.6776 18.408 41.4162 17.9761 41.135 17.5553C39.267 14.7597 36.612 12.5807 33.5056 11.294C30.3993 10.0074 26.9811 9.6707 23.6835 10.3267C20.3858 10.9826 17.3567 12.6017 14.9792 14.9792C12.6017 17.3567 10.9826 20.3858 10.3267 23.6835C9.6707 26.9811 10.0074 30.3993 11.294 33.5056C12.5807 36.612 14.7597 39.267 17.5553 41.135C17.9761 41.4162 18.408 41.6776 18.8497 41.9189C22.9694 44.1695 27 40.1944 27 35.5V35.5C27 30.8056 30.8056 27 35.5 27V27Z" fill="white"/>
<path d="M65.52 40C64.9677 40 64.52 39.5523 64.52 39V15.8C64.52 15.2477 64.9677 14.8 65.52 14.8H76.436C79.22 14.8 81.668 15.316 83.78 16.348C85.892 17.38 87.536 18.832 88.712 20.704C89.912 22.576 90.512 24.808 90.512 27.4C90.512 29.968 89.912 32.2 88.712 34.096C87.536 35.968 85.892 37.42 83.78 38.452C81.668 39.484 79.22 40 76.436 40H65.52ZM71.648 33.312C71.648 33.8643 72.0957 34.312 72.648 34.312H76.148C77.588 34.312 78.836 34.048 79.892 33.52C80.972 32.968 81.812 32.176 82.412 31.144C83.012 30.088 83.312 28.84 83.312 27.4C83.312 25.936 83.012 24.688 82.412 23.656C81.812 22.624 80.972 21.844 79.892 21.316C78.836 20.764 77.588 20.488 76.148 20.488H72.648C72.0957 20.488 71.648 20.9357 71.648 21.488V33.312Z" fill="white"/>
<path d="M94.9382 40C94.3859 40 93.9382 39.5523 93.9382 39V21.488C93.9382 20.9357 94.3859 20.488 94.9382 20.488H99.4542C100.006 20.488 100.454 20.9357 100.454 21.488V24.5136C100.454 24.9806 99.8392 25.1509 99.5989 24.7505V24.7505C99.5253 24.6279 99.5121 24.4775 99.5683 24.3461C100.15 22.9872 101.057 21.9652 102.29 21.28C103.346 20.6739 104.585 20.3147 106.007 20.2023C106.558 20.1588 107.006 20.6117 107.006 21.164V25.4881C107.006 25.9255 106.616 26.248 106.178 26.248V26.248C105.962 26.224 105.722 26.212 105.458 26.212C104.066 26.212 102.938 26.596 102.074 27.364C101.21 28.108 100.778 29.332 100.778 31.036V39C100.778 39.5523 100.33 40 99.7782 40H94.9382Z" fill="white"/>
<path d="M119.445 40.324C117.309 40.324 115.413 39.892 113.757 39.028C112.101 38.164 110.793 36.976 109.833 35.464C108.897 33.928 108.429 32.176 108.429 30.208C108.429 28.24 108.897 26.5 109.833 24.988C110.793 23.476 112.101 22.3 113.757 21.46C115.413 20.596 117.309 20.164 119.445 20.164C121.581 20.164 123.477 20.596 125.133 21.46C126.813 22.3 128.121 23.476 129.057 24.988C129.993 26.5 130.461 28.24 130.461 30.208C130.461 32.176 129.993 33.928 129.057 35.464C128.121 36.976 126.813 38.164 125.133 39.028C123.477 39.892 121.581 40.324 119.445 40.324ZM119.445 34.888C120.237 34.888 120.933 34.708 121.533 34.348C122.157 33.988 122.649 33.46 123.009 32.764C123.369 32.044 123.549 31.192 123.549 30.208C123.549 29.224 123.369 28.396 123.009 27.724C122.649 27.028 122.157 26.5 121.533 26.14C120.933 25.78 120.237 25.6 119.445 25.6C118.677 25.6 117.981 25.78 117.357 26.14C116.757 26.5 116.265 27.028 115.881 27.724C115.521 28.396 115.341 29.224 115.341 30.208C115.341 31.192 115.521 32.044 115.881 32.764C116.265 33.46 116.757 33.988 117.357 34.348C117.981 34.708 118.677 34.888 119.445 34.888Z" fill="white"/>
<path d="M145.906 40.324C144.25 40.324 142.834 39.964 141.658 39.244C140.482 38.5 139.582 37.396 138.958 35.932C138.358 34.444 138.058 32.548 138.058 30.244C138.058 27.916 138.346 26.02 138.922 24.556C139.498 23.068 140.362 21.964 141.514 21.244C142.69 20.524 144.154 20.164 145.906 20.164C147.682 20.164 149.29 20.584 150.73 21.424C152.194 22.24 153.346 23.404 154.186 24.916C155.05 26.404 155.482 28.18 155.482 30.244C155.482 32.308 155.05 34.096 154.186 35.608C153.346 37.12 152.194 38.284 150.73 39.1C149.29 39.916 147.682 40.324 145.906 40.324ZM134.63 46.984C134.077 46.984 133.63 46.5363 133.63 45.984V21.488C133.63 20.9357 134.077 20.488 134.63 20.488H139.146C139.698 20.488 140.146 20.9357 140.146 21.488V23.8L140.11 30.244L140.47 36.724V45.984C140.47 46.5363 140.022 46.984 139.47 46.984H134.63ZM144.466 34.888C145.234 34.888 145.918 34.708 146.518 34.348C147.142 33.988 147.634 33.46 147.994 32.764C148.378 32.068 148.57 31.228 148.57 30.244C148.57 29.26 148.378 28.42 147.994 27.724C147.634 27.028 147.142 26.5 146.518 26.14C145.918 25.78 145.234 25.6 144.466 25.6C143.698 25.6 143.002 25.78 142.378 26.14C141.778 26.5 141.286 27.028 140.902 27.724C140.542 28.42 140.362 29.26 140.362 30.244C140.362 31.228 140.542 32.068 140.902 32.764C141.286 33.46 141.778 33.988 142.378 34.348C143.002 34.708 143.698 34.888 144.466 34.888Z" fill="white"/>
<path d="M159.661 40C159.109 40 158.661 39.5523 158.661 39V14.288C158.661 13.7357 159.109 13.288 159.661 13.288H164.501C165.053 13.288 165.501 13.7357 165.501 14.288V39C165.501 39.5523 165.053 40 164.501 40H159.661Z" fill="white"/>
<path d="M180.627 40.324C178.131 40.324 176.187 39.712 174.795 38.488C173.403 37.24 172.707 35.368 172.707 32.872V17.132C172.707 16.5797 173.154 16.132 173.707 16.132H178.547C179.099 16.132 179.547 16.5797 179.547 17.132V32.8C179.547 33.496 179.739 34.048 180.123 34.456C180.507 34.84 180.999 35.032 181.599 35.032C181.91 35.032 182.204 35.0023 182.481 34.9428C183.13 34.8032 183.907 35.042 184.128 35.6678L185.119 38.4744C185.272 38.9058 185.115 39.3945 184.698 39.5839C184.271 39.7783 183.789 39.9291 183.255 40.036C182.415 40.228 181.539 40.324 180.627 40.324ZM170.863 26.32C170.31 26.32 169.863 25.8723 169.863 25.32V22.208C169.863 21.6557 170.31 21.208 170.863 21.208H183.011C183.563 21.208 184.011 21.6557 184.011 22.208V25.32C184.011 25.8723 183.563 26.32 183.011 26.32H170.863Z" fill="white"/>
</svg>
